<svg width="21" height="20" fill="none" xmlns="http://www.w3.org/2000/svg"><path fill-rule="evenodd" clip-rule="evenodd" d="M2.202 15.204a1 1 0 011.01.987 1 1 0 01-1.01.988 1 1 0 01-1.01-.988 1 1 0 011.01-.987zm3.424-6.768H0v9.86h5.626v-9.86zm.661.484v8.853l1.931.712c.827.295 1.765.62 2.675.861.91.243 1.792.405 2.73.512.938.108 1.93.162 2.647.136.717-.028 1.158-.136 1.545-.324.385-.189.716-.459.965-.755a2.63 2.63 0 00.496-.889c.083-.269.083-.485.11-.7.028-.216.083-.431.139-.593.054-.161.11-.27.192-.43l.276-.566a1.95 1.95 0 00.166-.566c.027-.216.027-.486.027-.727 0-.243 0-.459.055-.7.055-.243.166-.513.249-.729l.192-.538c.056-.162.111-.323.111-.485 0-.162-.055-.323-.11-.486-.056-.161-.11-.322-.11-.457s.054-.243.137-.432a3.58 3.58 0 00.249-.753 2.72 2.72 0 000-.944 2.492 2.492 0 00-.36-.942 2.558 2.558 0 00-.77-.755c-.305-.188-.635-.296-1.298-.35-.662-.054-1.654-.054-2.288-.081-.634-.027-.91-.08-1.048-.134-.138-.054-.138-.108-.028-.324.11-.215.33-.592.497-.996.165-.405.276-.835.331-1.32a6.925 6.925 0 000-1.509c-.055-.485-.166-.916-.386-1.293A2.243 2.243 0 0014.588.3a3.501 3.501 0 00-1.544-.296c-.469.027-.8.188-1.02.511-.221.324-.331.809-.441 1.429-.112.62-.221 1.373-.663 2.235-.44.862-1.212 1.832-1.878 2.56-.665.727-1.223 1.212-1.665 1.536-.44.323-.765.484-1.09.645z" fill="#DE3C3C"/></svg>