<svg width="91" height="34" fill="none" xmlns="http://www.w3.org/2000/svg"><path fill-rule="evenodd" clip-rule="evenodd" d="M37.902 17.63V5.68h1.988v4.648c.558-.818 1.363-1.522 2.71-1.522 1.956 0 3.09 1.31 3.09 3.323v5.5h-1.988v-4.91c0-1.343-.674-2.112-1.857-2.112-1.15 0-1.955.802-1.955 2.144v4.879h-1.988zm14.31.196c-2.645 0-4.6-2.014-4.6-4.469v-.033c0-2.472 1.972-4.518 4.633-4.518 2.662 0 4.617 2.014 4.617 4.486v.032c0 2.456-1.971 4.502-4.65 4.502zm.033-1.719c1.61 0 2.63-1.26 2.63-2.75v-.033c0-1.522-1.102-2.783-2.662-2.783-1.594 0-2.613 1.244-2.613 2.75v.033c0 1.506 1.101 2.783 2.645 2.783zm9.612 1.686c-1.232 0-2.596-.442-3.68-1.293l.887-1.342c.937.704 1.955 1.064 2.843 1.064.854 0 1.347-.36 1.347-.933v-.033c0-.671-.92-.9-1.939-1.212-1.281-.36-2.71-.883-2.71-2.537v-.033c0-1.637 1.363-2.635 3.088-2.635 1.085 0 2.268.376 3.188.982l-.79 1.408c-.837-.508-1.724-.819-2.447-.819-.773 0-1.216.36-1.216.868v.033c0 .622.936.884 1.955 1.211 1.265.393 2.695.966 2.695 2.521v.033c0 1.817-1.413 2.717-3.22 2.717zm8.15-.016c-1.462 0-2.498-.639-2.498-2.537v-4.551h-1.1V8.986h1.1V6.612h1.989v2.374h2.333v1.703h-2.333v4.24c0 .769.394 1.08 1.068 1.08a2.68 2.68 0 001.232-.295v1.621c-.493.278-1.052.442-1.791.442zm6.819.033c-1.956 0-3.09-1.31-3.09-3.323v-5.5h1.989v4.91c0 1.343.673 2.112 1.856 2.112 1.15 0 1.956-.802 1.956-2.145V8.986h1.988v8.644h-1.988v-1.343c-.559.819-1.364 1.523-2.711 1.523zm10.17-.017c-1.232 0-2.596-.442-3.68-1.293l.887-1.342c.936.704 1.955 1.064 2.842 1.064.855 0 1.348-.36 1.348-.933v-.033c0-.671-.92-.9-1.94-1.212-1.28-.36-2.71-.883-2.71-2.537v-.033c0-1.637 1.364-2.635 3.089-2.635 1.084 0 2.267.376 3.187.982l-.788 1.408c-.838-.508-1.725-.819-2.448-.819-.773 0-1.216.36-1.216.868v.033c0 .622.936.884 1.955 1.211 1.265.393 2.694.966 2.694 2.521v.033c0 1.817-1.412 2.717-3.22 2.717zM38.18 32.842V21.873h.806v1.867c.723-1.097 1.79-2.063 3.45-2.063 2.021 0 4.075 1.62 4.075 4.338v.033c0 2.717-2.054 4.37-4.075 4.37-1.675 0-2.76-.949-3.45-1.996v4.42h-.805zm4.174-3.193c1.824 0 3.286-1.326 3.286-3.569v-.032c0-2.194-1.528-3.602-3.286-3.602-1.741 0-3.417 1.457-3.417 3.585v.033c0 2.145 1.676 3.585 3.417 3.585zm10.384.77c-2.48 0-4.288-1.997-4.288-4.338v-.033c0-2.341 1.824-4.371 4.321-4.371 2.481 0 4.289 1.997 4.289 4.338v.033c0 2.34-1.824 4.37-4.322 4.37zm.033-.753c1.988 0 3.418-1.621 3.418-3.585v-.033c0-2.014-1.512-3.618-3.45-3.618-1.989 0-3.418 1.62-3.418 3.585v.033c0 2.013 1.511 3.618 3.45 3.618zm10.466.753c-2.415 0-4.271-1.997-4.271-4.338v-.033c0-2.341 1.873-4.371 4.271-4.371 1.578 0 2.564.72 3.352 1.539l-.575.59c-.723-.738-1.544-1.376-2.793-1.376-1.906 0-3.385 1.588-3.385 3.585v.033c0 2.013 1.528 3.618 3.45 3.618 1.184 0 2.104-.606 2.81-1.392l.56.491c-.855.966-1.874 1.654-3.419 1.654zm8.873 0c-2.12 0-3.352-1.44-3.352-3.438v-5.108h.805v4.96c0 1.72.97 2.849 2.662 2.849 1.643 0 2.908-1.244 2.908-2.98v-4.829h.805v8.35h-.805v-1.556c-.558.982-1.495 1.752-3.023 1.752zm9.596-.033c-1.216 0-2.547-.491-3.434-1.212l.476-.638c.92.704 1.939 1.097 3.007 1.097 1.133 0 2.02-.622 2.02-1.588v-.033c0-.982-1.05-1.342-2.217-1.67-1.364-.392-2.876-.802-2.876-2.291v-.033c0-1.343 1.134-2.308 2.76-2.308 1.003 0 2.137.36 2.975.916l-.428.672c-.772-.508-1.692-.835-2.58-.835-1.15 0-1.905.622-1.905 1.457v.032c0 .933 1.133 1.277 2.333 1.621 1.347.377 2.76.868 2.76 2.341v.033c0 1.49-1.281 2.439-2.891 2.439z" fill="#212121"/><path fill-rule="evenodd" clip-rule="evenodd" d="M17.695 6.295a2.527 2.527 0 002.527-2.52V.879A15.156 15.156 0 0015.167 0C8.976 0 3.658 3.703 1.302 9.003A25.137 25.137 0 0112.64 6.296h5.056zM.242 12.5a22.658 22.658 0 0112.397-3.685l5.056-.001c2.788 0 5.055-2.26 5.055-5.038V2.038a15.102 15.102 0 012.523 1.828c-.05 4.125-3.428 7.466-7.578 7.466l-5.056.001a20.15 20.15 0 00-12.606 4.42c-.003-.078-.009-.156-.014-.235A5.49 5.49 0 010 15.111c0-.893.093-1.76.242-2.61zm17.453 3.87c5.044 0 9.385-2.953 11.413-7.21A15.047 15.047 0 0027.47 6.3c-1.13 4.335-5.077 7.55-9.776 7.55l-5.056.002c-4.721 0-9.007 1.863-12.184 4.877.229.92.537 1.808.925 2.652 2.776-3.069 6.786-5.01 11.259-5.01l5.056-.002zm12.393-3.9c-2.747 3.878-7.269 6.419-12.393 6.419h-5.056c-4.035 0-7.62 1.89-9.933 4.825a15.24 15.24 0 001.659 1.996 10.112 10.112 0 018.274-4.303h5.056c4.92 0 9.375-2.015 12.585-5.258l.012-.174v-.001c.02-.286.041-.572.041-.863 0-.903-.093-1.782-.245-2.641zM6.298 27.35a7.586 7.586 0 016.34-3.424h5.057c4.388 0 8.444-1.415 11.762-3.793-2.08 5.874-7.683 10.09-14.29 10.09a15.115 15.115 0 01-8.87-2.872z" fill="#C00000"/></svg>