<svg width="20" height="20" fill="none" xmlns="http://www.w3.org/2000/svg"><path fill-rule="evenodd" clip-rule="evenodd" d="M20 7.564V1.05C20 .472 19.528 0 18.951 0H9.044c-.58 0-1.052.472-1.052 1.049v6.515c0 .58.472 1.053 1.052 1.053h1.097v2.442a.398.398 0 00.4.4.39.39 0 00.28-.116l2.727-2.726h5.403c.577 0 1.049-.472 1.049-1.053zm-6.396 10.13a.724.724 0 00-.213-.512l-2.67-2.67a.732.732 0 00-1.032 0l-.889.89c-.232.231-1.425-.06-2.782-1.422-1.36-1.356-1.653-2.55-1.42-2.781l.888-.889a.732.732 0 000-1.032l-2.67-2.67a.727.727 0 00-1.029 0L.54 7.857c-1.41 1.409.036 5.059 3.29 8.313C6.24 18.58 8.87 20 10.643 20c.62 0 1.136-.176 1.5-.54l1.25-1.25a.726.726 0 00.212-.515z" fill="#DE3C3C"/></svg>