<svg width="17" height="20" fill="none" xmlns="http://www.w3.org/2000/svg"><path fill-rule="evenodd" clip-rule="evenodd" d="M15.42 1l.369.109A1.676 1.676 0 0117 2.712v8.92a8.309 8.309 0 01-2.71 6.126c-3.263 2.99-8.318 2.99-11.581 0A8.31 8.31 0 010 11.632v-8.92c0-.739.492-1.39 1.211-1.603L1.58 1a24.448 24.448 0 0113.842 0zM7.295 12.61l5.95-4.185-.001-.002a.829.829 0 00.198-1.167.859.859 0 00-1.186-.195l-5.364 3.772-2.04-2.008a.86.86 0 00-1.192.01.828.828 0 00-.01 1.173l2.55 2.51a.779.779 0 00.15.099.834.834 0 00.1.064.86.86 0 00.351.084.862.862 0 00.289-.056.812.812 0 00.085-.041.807.807 0 00.12-.059z" fill="#DE3C3C"/></svg>