<svg width="23" height="20" fill="none" xmlns="http://www.w3.org/2000/svg"><path fill-rule="evenodd" clip-rule="evenodd" d="M15.66 4.244c0 2.345-1.862 4.245-4.16 4.245-2.297 0-4.16-1.9-4.16-4.245C7.34 1.9 9.204 0 11.5 0c2.298 0 4.16 1.9 4.16 4.244zM4.491 15.006c-.154 0-.314-.043-.476-.13l-.957-.512-.958.512c-.396.212-.803.154-1.037-.13-.11-.134-.23-.376-.164-.762l.182-1.08-.773-.768c-.269-.265-.369-.588-.274-.886.095-.298.362-.5.733-.555l1.07-.158.478-.985c.165-.342.436-.538.743-.538.306 0 .577.196.743.538l.478.985 1.07.158c.371.055.638.257.733.555.094.297-.005.62-.274.887l-.773.766.182 1.082c.065.385-.054.627-.165.762a.714.714 0 01-.561.26zm16.67-4.469l1.07.158c.371.055.639.257.733.555.095.298-.005.62-.274.887l-.773.766.182 1.082c.066.385-.053.627-.165.762a.713.713 0 01-.56.26 1 1 0 01-.476-.131l-.958-.512-.957.512c-.396.212-.803.153-1.037-.13-.111-.134-.23-.376-.165-.761l.182-1.082-.773-.767c-.269-.265-.368-.589-.274-.886.095-.298.362-.5.733-.555l1.07-.158.478-.985c.166-.342.437-.538.743-.538.307 0 .578.196.744.538l.477.985zm-6.928 6.287l1.286-1.34c.334-.347.458-.753.34-1.114-.116-.356-.445-.6-.902-.671l-1.76-.273-.791-1.713c-.293-.633-.732-.702-.907-.702-.175 0-.614.069-.906.703l-.791 1.712-1.76.273c-.458.07-.787.315-.904.671-.118.362.007.768.34 1.115l1.287 1.339-.304 1.896c-.082.51.065.815.203.98.282.34.774.397 1.266.121l1.57-.88 1.568.88c.211.119.418.18.615.179a.83.83 0 00.651-.3c.138-.165.286-.47.204-.98l-.305-1.896z" fill="#DE3C3C"/></svg>